{
	"asset":{
		"generator":"Khronos glTF Blender I/O v5.2.40",
		"version":"2.0"
	},
	"scene":0,
	"scenes":[
		{
			"name":"Scene",
			"nodes":[
				2
			]
		}
	],
	"nodes":[
		{
			"mesh":0,
			"name":"Object_2"
		},
		{
			"children":[
				0
			],
			"name":"55ae90b10c5c401ebb97a3808b2c07ac.obj.cleaner.materialmerger.gles"
		},
		{
			"children":[
				1
			],
			"name":"Sketchfab_model",
			"rotation":[
				-0.70710688829422,
				0,
				0,
				0.7071066498756409
			]
		}
	],
	"materials":[
		{
			"doubleSided":true,
			"name":"material_0",
			"pbrMetallicRoughness":{
				"baseColorFactor":[
					0.3837866187095642,
					1,
					0.15248911082744598,
					1
				],
				"metallicFactor":0,
				"roughnessFactor":0.1538461595773697
			}
		}
	],
	"meshes":[
		{
			"name":"Object_0",
			"primitives":[
				{
					"attributes":{
						"POSITION":0,
						"NORMAL":1
					},
					"indices":2,
					"material":0
				}
			]
		}
	],
	"accessors":[
		{
			"bufferView":0,
			"componentType":5126,
			"count":2515,
			"max":[
				0.06077880039811134,
				0.0616791695356369,
				0.18699601292610168
			],
			"min":[
				-0.09438042342662811,
				-0.05871463939547539,
				0.033309899270534515
			],
			"type":"VEC3"
		},
		{
			"bufferView":1,
			"componentType":5126,
			"count":2515,
			"type":"VEC3"
		},
		{
			"bufferView":2,
			"componentType":5123,
			"count":14934,
			"type":"SCALAR"
		}
	],
	"bufferViews":[
		{
			"buffer":0,
			"byteLength":30180,
			"byteOffset":0,
			"target":34962
		},
		{
			"buffer":0,
			"byteLength":30180,
			"byteOffset":30180,
			"target":34962
		},
		{
			"buffer":0,
			"byteLength":29868,
			"byteOffset":60360,
			"target":34963
		}
	],
	"buffers":[
		{
			"byteLength":90228,
			"uri":"scene.bin"
		}
	]
}
